<?xml version="1.0" encoding="UTF-8"?>
<svg id="Layer_1" data-name="Layer 1" xmlns="http://www.w3.org/2000/svg" viewBox="0 0 527.48 140.3">
  <defs>
    <style>
      .cls-1 {
        fill: #db1f26;
        stroke-width: 0px;
      }
    </style>
  </defs>
  <path class="cls-1" d="M525.53,135.14L462.52,0h-16.64l-52.34,111.2,13.37,21.68,4.36,7.22h8.84l7.92-17.24h51.92l8.12,17.24h39.4l-1.95-4.96ZM439.73,92.55l14.27-33.5,14.47,33.5h-28.74Z"/>
  <path class="cls-1" d="M400.3,134.75l-10.13-16.4-.06.13-14.98-24.27-2-3.24c13.67-9.31,20.41-24.57,20.6-40.43,0-24.37-16.45-49.14-49.94-49.14-20.42-.2-40.43,0-61.03,0v.2H23.99L0,33.29h34.08v107.01h35.07V33.29h31.51v107.01h88.38v-33.09h-52.12v-22.6h46.37v-31.7h-46.37v-19.82h44.98v.2h34.08v107.01h35.07V33.29h31.71v106.82h36.26v-43.4h19.02l23.79,43.4h41.01l-2.55-5.12v-.23ZM343.61,67.18h-25.17v-34.29h25.17c10.3,0,15.06,8.13,15.06,16.85,0,7.98-4.15,15.96-12.61,17.26-.78.13-1.6.19-2.45.19Z"/>
</svg>